<?xml version="1.0" standalone="no"?>
<!DOCTYPE svg PUBLIC "-//W3C//DTD SVG 20010904//EN"
 "http://www.w3.org/TR/2001/REC-SVG-20010904/DTD/svg10.dtd">
<svg version="1.0" xmlns="http://www.w3.org/2000/svg"
 width="512.000000pt" height="512.000000pt" viewBox="0 0 512.000000 512.000000"
 preserveAspectRatio="xMidYMid meet">
<metadata>
Created by potrace 1.11, written by Peter Selinger 2001-2013
</metadata>
<g transform="translate(0.000000,512.000000) scale(0.100000,-0.100000)"
fill="#000000" stroke="none">
<path d="M2398 4875 c-2 -2 -30 -6 -63 -9 -161 -16 -365 -61 -495 -110 -36
-13 -87 -32 -115 -43 -27 -10 -52 -20 -55 -23 -3 -3 -27 -15 -55 -28 -27 -13
-78 -39 -112 -58 -35 -19 -65 -34 -68 -34 -3 0 -12 -6 -20 -14 -8 -8 -31 -24
-52 -37 -21 -13 -44 -29 -51 -36 -7 -7 -17 -13 -22 -13 -5 0 -20 -11 -34 -25
-14 -14 -28 -25 -31 -25 -8 0 -141 -118 -209 -186 -132 -131 -274 -320 -346
-456 -14 -27 -28 -48 -32 -48 -5 0 -8 -6 -8 -14 0 -7 -11 -34 -24 -59 -14 -25
-22 -48 -19 -51 4 -3 2 -6 -3 -6 -6 0 -18 -24 -29 -52 -10 -29 -21 -57 -25
-63 -3 -5 -19 -50 -34 -100 -16 -49 -31 -97 -34 -105 -5 -15 -10 -36 -15 -67
-1 -10 -5 -22 -9 -28 -3 -5 -9 -30 -12 -55 -3 -25 -8 -56 -11 -70 -37 -202
-37 -541 1 -710 3 -14 8 -45 10 -69 3 -24 8 -49 12 -55 3 -6 7 -13 7 -16 7
-59 75 -276 100 -321 8 -14 12 -29 8 -33 -3 -3 -1 -6 5 -6 7 0 12 -8 12 -18 0
-10 7 -28 16 -40 9 -13 13 -30 10 -38 -3 -8 -2 -13 2 -10 5 3 24 -25 43 -62
19 -37 37 -68 42 -70 4 -2 7 -9 7 -17 0 -7 7 -18 15 -25 8 -7 12 -16 9 -21 -3
-5 -1 -9 4 -9 4 0 18 -18 31 -40 12 -22 27 -40 32 -40 6 0 9 -5 7 -12 -2 -6 5
-21 16 -32 12 -12 35 -38 51 -60 52 -67 86 -105 160 -179 81 -81 174 -167 181
-167 5 0 81 -57 94 -70 15 -15 100 -70 108 -70 6 0 12 -4 14 -9 5 -12 246
-142 279 -149 8 -2 16 -8 17 -13 2 -5 12 -9 22 -9 29 0 50 -11 43 -23 -4 -6
-1 -7 6 -3 7 5 24 3 39 -2 15 -6 36 -14 47 -18 25 -9 32 -11 46 -13 5 0 7 -7
3 -13 -6 -10 -5 -10 7 -1 9 8 19 9 25 3 5 -5 23 -11 39 -14 17 -2 30 -5 30 -6
0 -2 20 -7 103 -23 39 -8 72 -12 72 -10 0 3 6 1 13 -5 39 -32 553 -37 687 -7
14 3 41 8 60 11 19 3 64 12 100 20 36 9 76 18 89 20 13 3 31 9 40 13 9 5 19 9
24 10 4 1 8 1 10 2 20 6 46 11 64 13 11 0 20 4 18 7 -2 3 39 22 91 43 108 43
273 127 311 158 7 5 18 6 25 2 7 -4 10 -4 6 1 -4 4 25 31 64 59 40 28 81 59
90 68 10 10 21 18 26 18 4 0 27 18 52 40 25 22 52 45 60 52 8 7 18 12 22 11 5
-2 7 0 5 5 -1 4 32 42 73 84 81 83 134 144 163 189 11 16 22 29 26 29 3 0 15
16 25 35 11 19 23 35 28 35 4 0 8 5 8 11 0 6 10 25 22 42 12 17 30 45 39 61 9
17 33 60 53 96 20 36 39 72 42 80 3 8 14 33 24 55 9 22 32 81 50 130 18 50 35
97 38 105 3 8 7 20 8 25 1 6 3 12 4 15 2 6 5 17 20 80 16 62 20 81 25 110 2
14 6 43 10 65 3 22 8 51 11 65 15 82 24 382 12 417 -4 12 -3 25 3 28 5 4 6 12
2 18 -4 7 -8 19 -8 27 -7 143 -73 419 -145 600 -23 58 -129 278 -142 295 -5 6
-35 51 -68 100 -81 122 -91 136 -120 167 -14 15 -36 42 -50 59 -46 58 -189
197 -266 259 -90 73 -310 220 -329 220 -3 0 -22 10 -43 23 -20 13 -66 36 -102
51 -36 15 -78 34 -95 41 -25 11 -175 62 -210 72 -105 28 -212 50 -284 58 -30
4 -63 9 -75 12 -21 5 -393 12 -398 8z"/>
<path d="M1550 696 c0 -2 8 -10 18 -17 15 -13 16 -12 3 4 -13 16 -21 21 -21
13z"/>
<path d="M1876 513 c-6 -14 -5 -15 5 -6 7 7 10 15 7 18 -3 3 -9 -2 -12 -12z"/>
</g>
</svg>
